<?xml version="1.0" standalone="no"?>
<!DOCTYPE svg PUBLIC "-//W3C//DTD SVG 20010904//EN"
 "http://www.w3.org/TR/2001/REC-SVG-20010904/DTD/svg10.dtd">
<svg version="1.0" xmlns="http://www.w3.org/2000/svg"
 width="1232.000000pt" height="1280.000000pt" viewBox="0 0 1232.000000 1280.000000"
 preserveAspectRatio="xMidYMid meet">
<metadata>
Created by potrace 1.15, written by Peter Selinger 2001-2017
</metadata>
<g transform="translate(0.000000,1280.000000) scale(0.100000,-0.100000)"
fill="#000000" stroke="none">
<path d="M8719 12784 c-113 -13 -119 -15 -233 -76 -97 -52 -144 -86 -269 -196
-151 -133 -153 -134 -352 -234 -110 -55 -258 -134 -330 -175 l-130 -74 -120
-154 c-114 -147 -122 -160 -169 -282 -72 -190 -163 -496 -204 -683 l-36 -165
-115 -101 -116 -101 -100 14 c-74 10 -215 13 -538 13 l-437 -1 -9 23 c-4 13
-13 113 -20 223 -25 419 -100 924 -192 1295 -52 211 -66 252 -97 298 -19 28
-37 52 -40 52 -3 0 -37 -28 -76 -63 -39 -35 -114 -96 -166 -136 -63 -49 -111
-95 -142 -139 l-48 -66 0 -125 c0 -92 6 -153 23 -230 l22 -104 63 -55 c34 -31
62 -60 62 -66 0 -6 23 -95 50 -196 39 -141 150 -635 150 -666 0 -2 -93 -4
-207 -4 -219 1 -394 -13 -1058 -86 -632 -69 -1294 -228 -1782 -428 -320 -131
-618 -301 -807 -459 -222 -186 -362 -332 -516 -537 -326 -436 -519 -911 -654
-1610 -56 -291 -92 -607 -112 -984 -14 -278 -14 -302 6 -575 23 -323 62 -702
86 -836 116 -664 246 -1149 442 -1655 226 -581 528 -1100 963 -1655 128 -164
295 -333 562 -570 241 -214 598 -470 847 -607 292 -161 459 -235 735 -323 392
-125 412 -131 665 -179 528 -102 984 -125 1590 -80 398 29 731 102 1185 258
530 182 758 294 1215 599 245 164 612 487 837 737 157 175 456 563 471 613 6
17 29 90 52 161 41 128 41 129 38 261 l-3 133 -72 80 -73 80 0 192 0 192 -50
152 c-27 83 -55 159 -62 167 -7 9 -43 39 -79 67 l-67 52 -78 0 -79 0 -90 79
c-83 72 -95 87 -161 207 -106 191 -159 354 -182 558 l-18 160 21 95 c15 65 34
115 59 156 l36 60 0 200 c-1 110 -6 270 -13 355 -8 92 -10 202 -6 270 7 131
31 203 141 432 l61 126 161 87 c89 48 167 93 174 99 7 7 31 72 53 144 26 87
63 175 105 256 l65 124 133 84 132 84 148 32 c82 17 151 33 153 36 3 2 45 142
94 310 68 232 99 321 129 375 l40 70 -88 203 c-101 233 -227 442 -431 715
-188 252 -440 486 -786 730 -354 251 -927 477 -1440 568 -16 3 -113 19 -215
36 -102 17 -186 32 -188 34 -3 3 193 13 413 21 139 5 208 13 376 45 113 22
316 59 451 82 l245 43 189 -68 189 -68 120 15 c66 8 197 24 290 35 140 16 513
76 813 131 61 11 64 13 119 80 31 38 60 69 63 69 4 0 89 -45 191 -99 174 -94
193 -101 358 -145 l173 -46 225 0 c123 0 290 -5 371 -11 l147 -10 175 -114
c96 -63 175 -113 177 -112 1 1 -16 85 -37 187 l-38 185 -134 235 c-74 129
-149 262 -167 296 -20 38 -75 107 -146 181 -93 98 -171 164 -437 368 -340 262
-590 467 -799 656 l-126 114 -174 57 c-155 51 -191 59 -329 73 -398 42 -749
87 -890 115 -172 33 -161 33 -321 14z m621 -287 c0 -2 -10 -12 -22 -23 l-23
-19 19 23 c18 21 26 27 26 19z m-90 -102 c-24 -25 -46 -45 -49 -45 -3 0 15 20
39 45 24 25 46 45 49 45 3 0 -15 -20 -39 -45z m-90 -98 c0 -2 -15 -16 -32 -33
l-33 -29 29 33 c28 30 36 37 36 29z m53 -444 c-7 -2 -21 -2 -30 0 -10 3 -4 5
12 5 17 0 24 -2 18 -5z m-3653 -1287 c0 -7 9 -82 20 -166 12 -84 19 -157 18
-162 -2 -5 -38 53 -81 128 -57 101 -74 140 -65 145 7 4 31 21 53 37 45 35 55
38 55 18z m2155 -635 c17 -4 -53 -6 -155 -3 -102 2 -189 5 -195 7 -20 7 321 2
350 -4z m1938 -7279 c-27 -62 -51 -112 -55 -112 -4 0 15 50 42 111 28 61 50
114 50 117 0 3 2 3 5 0 3 -3 -16 -55 -42 -116z"/>
</g>
</svg>
